<svg id="Layer_1" data-name="Layer 1" xmlns="http://www.w3.org/2000/svg" viewBox="0 0 248 248">
	<defs>
		<style>.cls-1 {
		fill: #4F819C;
	}

	.cls-2 {
		fill: #FFFFFF;
	}

	.cls-3 {
		fill: #CF8A8A;
	}

	.cls-4 {
		fill: #CF8A8A;
	}</style>
	</defs>
	<rect class="cls-1" x="53.2" y="103.5" width="47.6" height="80.69" rx="6"/>
	<path class="cls-2" d="M94.8,188.2H59.2a10,10,0,0,1-10-10V109.5a10,10,0,0,1,10-10H94.8a10,10,0,0,1,10,10v68.7A10,10,0,0,1,94.8,188.2ZM59.2,107.5a2,2,0,0,0-2,2v68.7a2,2,0,0,0,2,2H94.8a2,2,0,0,0,2-2V109.5a2,2,0,0,0-2-2Z"/>
	<rect class="cls-3" x="100.8" y="103.5" width="47.6" height="80.69" rx="6"/>
	<path class="cls-2" d="M142.3,188.2H106.8a10,10,0,0,1-10-10V109.5a10,10,0,0,1,10-10h35.5a10,10,0,0,1,10,10h0v68.7a10,10,0,0,1-10,10Zm-35.5-80.7a2,2,0,0,0-2,2v68.7a2,2,0,0,0,2,2h35.5a2,2,0,0,0,2-2V109.5a2,2,0,0,0-2-2Z"/>
	<rect class="cls-1" x="148.3" y="103.5" width="47.6" height="80.69" rx="6"/>
	<path class="cls-2" d="M189.9,188.2H154.3a10,10,0,0,1-10-10V109.5a10,10,0,0,1,10-10h35.6a10,10,0,0,1,10,10v68.7a10,10,0,0,1-10,10Zm-35.6-80.7a2,2,0,0,0-2,2v68.7a2,2,0,0,0,2,2h35.6a2,2,0,0,0,2-2V109.5a2,2,0,0,0-2-2Z"/>
	<rect class="cls-4" x="43.5" y="78.6" width="162" height="24.85" rx="10.3"/>
	<path class="cls-2"
				d="M195.2,107.5H53.9A14.4,14.4,0,0,1,39.5,93.1h0V89A14.49,14.49,0,0,1,53.9,74.6H195.2A14.49,14.49,0,0,1,209.6,89v4.1A14.4,14.4,0,0,1,195.2,107.5ZM53.9,82.6A6.41,6.41,0,0,0,47.5,89h0v4.1a6.41,6.41,0,0,0,6.4,6.4H195.2a6.41,6.41,0,0,0,6.4-6.4V89a6.41,6.41,0,0,0-6.4-6.4Z"/>
	<path class="cls-4" d="M185.6,58H170.5a10.6,10.6,0,0,1-9.3-5.8c-4.6-8.6-19.3-14.9-36.7-14.9s-32,6.3-36.6,14.9A10.6,10.6,0,0,1,78.6,58H63.5A10.3,10.3,0,0,0,53.2,68.3h0A10.3,10.3,0,0,0,63.5,78.6H185.6a10.3,10.3,0,0,0,10.3-10.3h0A10.3,10.3,0,0,0,185.6,58Z"/>
	<path class="cls-2"
				d="M185.6,82.6H63.5a14.3,14.3,0,0,1,0-28.6H78.6a6.62,6.62,0,0,0,5.8-3.7c5.4-10.2,21.5-17,40.1-17s34.8,6.8,40.2,17a6.62,6.62,0,0,0,5.8,3.7h15.1a14.3,14.3,0,0,1,0,28.6ZM63.5,62a6.3,6.3,0,1,0,0,12.6H185.6a6.3,6.3,0,1,0,0-12.6H170.5a14.71,14.71,0,0,1-12.8-7.9c-4.5-8.4-20.1-12.8-33.2-12.8S95.9,45.7,91.4,54.1A14.71,14.71,0,0,1,78.6,62Z"/>
	<path class="cls-2" d="M75,155.1a4.37,4.37,0,0,1-1.6-.3,4.11,4.11,0,0,1-2.1-5.3l4.4-10.3H71.6a4,4,0,0,1,0-8H81.8a4,4,0,0,1,3.7,5.5l-6.8,16A4.09,4.09,0,0,1,75,155.1Z"/>
	<path class="cls-2" d="M123.2,155.1a4,4,0,0,1-1.6-.3,4.11,4.11,0,0,1-2.1-5.3l4.4-10.3h-4.1a4,4,0,0,1,0-8H130a4,4,0,0,1,3.7,5.5l-6.9,16A3.91,3.91,0,0,1,123.2,155.1Z"/>
	<path class="cls-2" d="M170.1,155.1l-1.6-.3a4.2,4.2,0,0,1-2.1-5.3l4.5-10.3h-4.2a4,4,0,0,1,0-8h10.2a3.89,3.89,0,0,1,3.4,1.8,4,4,0,0,1,.3,3.7l-6.8,16A4,4,0,0,1,170.1,155.1Z"/>
	<path class="cls-2" d="M137,60.7H112.2a4,4,0,0,1,0-8H137a4,4,0,0,1,0,8Z"/>
	<rect class="cls-4" x="44.75" y="181.4" width="161.65" height="35.3" rx="10.3"/>
	<path class="cls-2"
				d="M196.1,220.7H55.1a14.3,14.3,0,0,1-14.3-14.3h0V191.8a14.4,14.4,0,0,1,14.3-14.4h141a14.49,14.49,0,0,1,14.4,14.4v14.6A14.4,14.4,0,0,1,196.1,220.7Zm-141-35.3a6.39,6.39,0,0,0-6.3,6.4v14.6a6.3,6.3,0,0,0,6.3,6.3h141a6.39,6.39,0,0,0,6.4-6.3V191.8a6.41,6.41,0,0,0-6.4-6.4Z"/>
</svg>
